# This file uses centimeters as units for non-parametric coordinates.

mtllib New_Jersey_C.mtl
g default
v -0.459064 -0.878608 0.017666
v 0.064337 -0.878608 0.017666
v 0.293718 -0.878608 0.017666
v 0.454187 -0.878608 0.017666
v -0.284491 -0.649227 0.017666
v 0.064337 -0.649227 0.017666
v 0.293718 -0.649227 0.017666
v 0.463375 -0.649227 0.017666
v -0.109913 -0.419846 0.017666
v 0.064337 -0.419846 0.017666
v 0.293718 -0.419846 0.017666
v 0.523098 -0.419846 0.017666
v -0.330429 -0.190465 0.017666
v 0.064337 -0.190465 0.017666
v 0.293718 -0.190465 0.017666
v 0.523098 -0.190465 0.017666
v -0.399338 -0.126147 0.017666
v 0.064337 -0.126147 0.017666
v 0.293718 -0.126147 0.017666
v 0.523098 -0.126147 0.017666
v -0.505003 -0.034265 0.017666
v -0.124020 -0.034265 0.017666
v 0.105360 -0.034265 0.017666
v 0.261234 -0.034265 0.017666
v -0.546349 0.075993 0.017666
v -0.124020 0.075993 0.017666
v 0.105360 0.075993 0.017666
v 0.238264 0.075993 0.017666
v -0.541754 0.195441 0.017666
v -0.124020 0.195441 0.017666
v 0.105360 0.195441 0.017666
v 0.284206 0.195441 0.017666
v -0.550941 0.296511 0.017666
v -0.124020 0.296511 0.017666
v 0.105360 0.296511 0.017666
v 0.325554 0.296511 0.017666
v -0.514187 0.415957 0.017666
v -0.124020 0.415957 0.017666
v 0.105360 0.415957 0.017666
v 0.325554 0.415957 0.017666
v -0.472839 0.521623 0.017666
v -0.124020 0.512434 0.017666
v 0.105360 0.512434 0.017666
v 0.325554 0.512434 0.017666
v -0.307453 0.788080 0.017666
v -0.124020 0.723763 0.017666
v 0.105360 0.641069 0.017666
v 0.325554 0.549187 0.017666
v -0.413116 0.664040 0.017666
v -0.124020 0.618098 0.017666
v 0.105360 0.576752 0.017666
v 0.325554 0.530810 0.017666
v -0.509600 -1.011836 0.017666
v 0.013803 -1.011836 0.017666
v 0.243183 -1.011836 0.017666
v 0.403654 -1.011836 0.017666
v -0.500410 -1.126689 0.017666
v 0.013803 -1.126689 0.017666
v 0.192650 -1.126689 0.017666
v 0.357716 -1.126689 0.017666
v -0.426905 -1.232353 0.017666
v 0.013803 -1.232353 0.017666
v 0.160490 -1.232353 0.017666
v 0.325558 -1.232353 0.017666
v -0.284487 -1.310453 0.017666
v 0.013803 -1.310453 0.017666
v 0.160490 -1.310453 0.017666
v 0.275023 -1.310453 0.017666
v -0.082346 -1.388553 0.017666
v 0.013803 -1.388553 0.017666
v 0.091581 -1.388553 0.017666
v 0.275023 -1.388553 0.017666
v 0.091581 -1.448276 0.017666
v 0.229082 -1.448276 0.017666
v 0.119146 -1.540158 0.017666
v 0.206112 -1.540158 0.017666
v -0.452169 -0.080206 0.017666
v -0.029840 -0.080206 0.017666
v 0.199539 -0.080206 0.017666
v 0.387573 -0.057236 0.017666
vt 0.000000 0.000000
vt 0.333333 0.000000
vt 0.333333 0.333333
vt 0.000000 0.333333
vt 0.666667 0.000000
vt 0.666667 0.333333
vt 1.000000 0.000000
vt 1.000000 0.333333
vt 0.333333 0.666667
vt 0.000000 0.666667
vt 0.666667 0.666667
vt 1.000000 0.666667
vt 0.333333 1.000000
vt 0.000000 1.000000
vt 0.666667 1.000000
vt 1.000000 1.000000
vt 0.000000 0.000000
vt 1.000000 0.000000
vt 1.000000 1.000000
vt 0.000000 1.000000
vt 0.000000 0.000000
vt 1.000000 0.000000
vt 1.000000 1.000000
vt 0.000000 1.000000
vt 0.000000 0.000000
vt 1.000000 0.000000
vt 1.000000 1.000000
vt 0.000000 1.000000
vt 0.000000 0.500000
vt 1.000000 0.500000
vt 1.000000 1.000000
vt 0.000000 1.000000
vt 0.000000 0.500000
vt 1.000000 0.500000
vt 1.000000 1.000000
vt 0.000000 1.000000
vt 0.000000 0.500000
vt 1.000000 0.500000
vt 1.000000 1.000000
vt 0.000000 1.000000
vt 0.000000 0.000000
vt 1.000000 0.000000
vt 1.000000 1.000000
vt 0.000000 1.000000
vt 0.000000 0.000000
vt 1.000000 0.000000
vt 1.000000 1.000000
vt 0.000000 1.000000
vt 0.000000 0.000000
vt 1.000000 0.000000
vt 1.000000 1.000000
vt 0.000000 1.000000
vt 0.000000 0.000000
vt 1.000000 0.000000
vt 1.000000 1.000000
vt 0.000000 1.000000
vt 0.000000 0.000000
vt 1.000000 0.000000
vt 1.000000 1.000000
vt 0.000000 1.000000
vt 0.000000 0.000000
vt 1.000000 0.000000
vt 1.000000 1.000000
vt 0.000000 1.000000
vt 0.000000 0.000000
vt 1.000000 0.000000
vt 1.000000 1.000000
vt 0.000000 1.000000
vt 0.000000 0.000000
vt 1.000000 0.000000
vt 1.000000 1.000000
vt 0.000000 1.000000
vt 0.000000 0.000000
vt 1.000000 0.000000
vt 1.000000 1.000000
vt 0.000000 1.000000
vt 0.000000 0.000000
vt 1.000000 0.000000
vt 1.000000 1.000000
vt 0.000000 1.000000
vt 0.000000 0.000000
vt 1.000000 0.000000
vt 1.000000 1.000000
vt 0.000000 1.000000
vt 0.000000 0.000000
vt 1.000000 0.000000
vt 1.000000 1.000000
vt 0.000000 1.000000
vt 0.000000 0.000000
vt 1.000000 0.000000
vt 1.000000 1.000000
vt 0.000000 1.000000
vt 0.000000 0.000000
vt 1.000000 0.000000
vt 1.000000 1.000000
vt 0.000000 1.000000
vt 0.000000 0.000000
vt 1.000000 0.000000
vt 1.000000 1.000000
vt 0.000000 1.000000
vt 0.000000 0.500000
vt 1.000000 0.500000
vt 1.000000 1.000000
vt 0.000000 1.000000
vt 0.000000 0.500000
vt 1.000000 0.500000
vt 1.000000 1.000000
vt 0.000000 1.000000
vt 0.000000 0.500000
vt 1.000000 0.500000
vt 1.000000 1.000000
vt 0.000000 1.000000
vt 0.000000 0.000000
vt 1.000000 0.000000
vt 0.000000 0.000000
vt 1.000000 0.000000
vt 0.000000 0.000000
vt 1.000000 0.000000
vt 0.000000 0.000000
vt 1.000000 0.000000
vt 1.000000 1.000000
vt 0.000000 1.000000
vt 0.000000 0.000000
vt 1.000000 0.000000
vt 1.000000 1.000000
vt 0.000000 1.000000
vt 0.000000 0.000000
vt 1.000000 0.000000
vt 1.000000 1.000000
vt 0.000000 1.000000
vt 0.000000 0.000000
vt 1.000000 0.000000
vt 1.000000 1.000000
vt 0.000000 1.000000
vt 0.000000 0.000000
vt 1.000000 0.000000
vt 1.000000 1.000000
vt 0.000000 1.000000
vt 0.000000 0.000000
vt 1.000000 0.000000
vt 1.000000 1.000000
vt 0.000000 1.000000
vt 0.000000 0.000000
vt 1.000000 0.000000
vt 1.000000 1.000000
vt 0.000000 1.000000
vt 0.000000 0.000000
vt 1.000000 0.000000
vt 1.000000 1.000000
vt 0.000000 1.000000
vt 0.000000 0.000000
vt 1.000000 0.000000
vt 1.000000 1.000000
vt 0.000000 1.000000
vt 0.000000 0.000000
vt 1.000000 0.000000
vt 1.000000 1.000000
vt 0.000000 1.000000
vt 0.000000 0.000000
vt 1.000000 0.000000
vt 1.000000 1.000000
vt 0.000000 1.000000
vt 0.000000 0.000000
vt 1.000000 0.000000
vt 1.000000 1.000000
vt 0.000000 1.000000
vt 0.000000 0.000000
vt 1.000000 0.000000
vt 1.000000 1.000000
vt 0.000000 1.000000
vt 0.000000 0.000000
vt 1.000000 0.000000
vt 1.000000 1.000000
vt 0.000000 1.000000
vt 0.000000 0.000000
vt 1.000000 0.000000
vt 1.000000 1.000000
vt 0.000000 1.000000
vt 0.000000 0.000000
vt 1.000000 0.000000
vt 1.000000 1.000000
vt 0.000000 1.000000
vt 0.000000 0.000000
vt 1.000000 0.000000
vt 1.000000 1.000000
vt 0.000000 1.000000
vt 0.000000 0.000000
vt 1.000000 0.000000
vt 0.000000 0.000000
vt 1.000000 0.000000
vt 0.000000 0.000000
vt 1.000000 0.000000
vn 0.000000 0.000000 1.000000
vn 0.000000 0.000000 1.000000
vn 0.000000 0.000000 1.000000
vn 0.000000 0.000000 1.000000
vn 0.000000 0.000000 1.000000
vn 0.000000 0.000000 1.000000
vn 0.000000 0.000000 1.000000
vn 0.000000 0.000000 1.000000
vn 0.000000 0.000000 1.000000
vn 0.000000 0.000000 1.000000
vn 0.000000 0.000000 1.000000
vn 0.000000 0.000000 1.000000
vn 0.000000 0.000000 1.000000
vn 0.000000 0.000000 1.000000
vn 0.000000 0.000000 1.000000
vn 0.000000 0.000000 1.000000
vn 0.000000 0.000000 1.000000
vn 0.000000 0.000000 1.000000
vn 0.000000 0.000000 1.000000
vn 0.000000 0.000000 1.000000
vn 0.000000 0.000000 1.000000
vn 0.000000 0.000000 1.000000
vn 0.000000 0.000000 1.000000
vn 0.000000 0.000000 1.000000
vn 0.000000 0.000000 1.000000
vn 0.000000 0.000000 1.000000
vn 0.000000 0.000000 1.000000
vn 0.000000 0.000000 1.000000
vn 0.000000 0.000000 1.000000
vn 0.000000 0.000000 1.000000
vn 0.000000 0.000000 1.000000
vn 0.000000 0.000000 1.000000
vn 0.000000 0.000000 1.000000
vn 0.000000 0.000000 1.000000
vn 0.000000 0.000000 1.000000
vn 0.000000 0.000000 1.000000
vn 0.000000 0.000000 1.000000
vn 0.000000 0.000000 1.000000
vn 0.000000 0.000000 1.000000
vn 0.000000 0.000000 1.000000
vn 0.000000 0.000000 1.000000
vn 0.000000 0.000000 1.000000
vn 0.000000 0.000000 1.000000
vn 0.000000 0.000000 1.000000
vn 0.000000 0.000000 1.000000
vn 0.000000 0.000000 1.000000
vn 0.000000 0.000000 1.000000
vn 0.000000 0.000000 1.000000
vn 0.000000 0.000000 1.000000
vn 0.000000 0.000000 1.000000
vn 0.000000 0.000000 1.000000
vn 0.000000 0.000000 1.000000
vn 0.000000 0.000000 1.000000
vn 0.000000 0.000000 1.000000
vn 0.000000 0.000000 1.000000
vn 0.000000 0.000000 1.000000
vn 0.000000 0.000000 1.000000
vn -0.000001 0.000000 1.000000
vn 0.000000 0.000000 1.000000
vn 0.000000 0.000000 1.000000
vn 0.000000 0.000000 1.000000
vn 0.000000 0.000000 1.000000
vn 0.000000 0.000000 1.000000
vn 0.000000 0.000000 1.000000
vn 0.000000 0.000000 1.000000
vn 0.000000 0.000000 1.000000
vn 0.000000 0.000000 1.000000
vn 0.000000 0.000000 1.000000
vn 0.000000 0.000000 1.000000
vn 0.000000 0.000000 1.000000
vn 0.000000 0.000000 1.000000
vn 0.000000 0.000000 1.000000
vn 0.000000 0.000000 1.000000
vn 0.000000 0.000000 1.000000
vn 0.000000 0.000000 1.000000
vn 0.000000 0.000000 1.000000
vn 0.000000 0.000000 1.000000
vn 0.000000 0.000000 1.000000
vn 0.000000 0.000000 1.000000
vn 0.000000 0.000000 1.000000
vn 0.000000 0.000000 1.000000
vn 0.000000 0.000000 1.000000
vn 0.000000 0.000000 1.000000
vn 0.000000 0.000000 1.000000
vn 0.000000 0.000000 1.000000
vn 0.000000 0.000000 1.000000
vn 0.000000 0.000000 1.000000
vn 0.000000 0.000000 1.000000
vn 0.000000 0.000000 1.000000
vn 0.000000 0.000000 1.000000
vn 0.000000 0.000000 1.000000
vn 0.000000 0.000000 1.000000
vn 0.000000 0.000000 1.000000
vn 0.000000 0.000000 1.000000
vn 0.000000 0.000000 1.000000
vn 0.000000 0.000000 1.000000
vn 0.000000 0.000000 1.000000
vn 0.000000 0.000000 1.000000
vn 0.000000 0.000000 1.000000
vn 0.000000 0.000000 1.000000
vn 0.000000 0.000000 1.000000
vn 0.000000 0.000000 1.000000
vn 0.000000 0.000000 1.000000
vn 0.000000 0.000000 1.000000
vn 0.000000 0.000000 1.000000
vn 0.000000 0.000000 1.000000
vn 0.000000 0.000000 1.000000
vn 0.000000 0.000000 1.000000
vn 0.000000 0.000000 1.000000
vn 0.000000 0.000000 1.000000
vn 0.000000 0.000000 1.000000
vn 0.000000 0.000000 1.000000
vn 0.000000 0.000000 1.000000
vn 0.000000 0.000000 1.000000
vn 0.000000 0.000000 1.000000
vn 0.000000 0.000000 1.000000
vn 0.000000 0.000000 1.000000
vn 0.000000 0.000000 1.000000
vn 0.000000 0.000000 1.000000
vn 0.000000 0.000000 1.000000
vn 0.000000 0.000000 1.000000
vn 0.000000 0.000000 1.000000
vn 0.000000 0.000000 1.000000
vn 0.000000 0.000000 1.000000
vn 0.000000 0.000000 1.000000
vn 0.000000 0.000000 1.000000
vn 0.000000 0.000000 1.000000
vn 0.000000 0.000000 1.000000
vn 0.000000 0.000000 1.000000
vn 0.000000 0.000000 1.000000
vn 0.000000 0.000000 1.000000
vn 0.000000 0.000000 1.000000
vn 0.000000 0.000000 1.000000
vn 0.000000 0.000000 1.000000
vn 0.000000 0.000000 1.000000
vn 0.000000 0.000000 1.000000
vn 0.000000 0.000000 1.000000
vn 0.000000 0.000000 1.000000
vn 0.000000 0.000000 1.000000
vn 0.000000 0.000000 1.000000
vn 0.000000 0.000000 1.000000
vn 0.000000 0.000000 1.000000
vn 0.000000 0.000000 1.000000
vn 0.000000 0.000000 1.000000
vn 0.000000 0.000000 1.000000
vn 0.000000 0.000000 1.000000
vn 0.000000 0.000000 1.000000
vn 0.000000 0.000000 1.000000
vn 0.000000 0.000000 1.000000
vn 0.000000 0.000000 1.000000
vn 0.000000 0.000000 1.000000
vn 0.000000 0.000000 1.000000
vn 0.000000 0.000000 1.000000
vn 0.000000 0.000000 1.000000
vn 0.000000 0.000000 1.000000
vn 0.000000 0.000000 1.000000
vn 0.000000 0.000000 1.000000
vn 0.000000 0.000000 1.000000
vn 0.000000 0.000000 1.000000
vn 0.000000 0.000000 1.000000
vn 0.000000 0.000000 1.000000
vn 0.000000 0.000000 1.000000
vn 0.000000 0.000000 1.000000
vn 0.000000 0.000000 1.000000
vn 0.000000 0.000000 1.000000
vn 0.000000 0.000000 1.000000
vn 0.000000 0.000000 1.000000
vn 0.000000 0.000000 1.000000
vn 0.000000 0.000000 1.000000
vn 0.000000 0.000000 1.000000
vn 0.000000 0.000000 1.000000
vn 0.000000 0.000000 1.000000
vn 0.000000 0.000000 1.000000
vn 0.000000 0.000000 1.000000
vn 0.000000 0.000000 1.000000
vn 0.000000 0.000000 1.000000
vn 0.000000 0.000000 1.000000
vn 0.000000 0.000000 1.000000
vn 0.000000 0.000000 1.000000
vn 0.000000 0.000000 1.000000
vn 0.000000 0.000000 1.000000
vn 0.000000 0.000000 1.000000
vn 0.000000 0.000000 1.000000
vn 0.000000 0.000000 1.000000
vn 0.000000 0.000000 1.000000
vn 0.000000 0.000000 1.000000
vn 0.000000 0.000000 1.000000
vn 0.000000 0.000000 1.000000
vn 0.000000 0.000000 1.000000
vn 0.000000 0.000000 1.000000
vn 0.000000 0.000000 1.000000
vn 0.000000 0.000000 1.000000
vn 0.000000 0.000000 1.000000
vn 0.000000 0.000000 1.000000
vn 0.000000 0.000000 1.000000
vn 0.000000 0.000000 1.000000
vn 0.000000 0.000000 1.000000
vn 0.000000 0.000000 1.000000
vn 0.000000 0.000000 1.000000
vn 0.000000 0.000000 1.000000
vn 0.000000 0.000000 1.000000
vn 0.000000 0.000000 1.000000
vn 0.000000 0.000000 1.000000
vn 0.000000 0.000000 1.000000
vn 0.000000 0.000000 1.000000
vn 0.000000 0.000000 1.000000
vn 0.000000 0.000000 1.000000
vn 0.000000 0.000000 1.000000
vn 0.000000 0.000000 1.000000
vn 0.000000 0.000000 1.000000
vn 0.000000 0.000000 1.000000
vn 0.000000 0.000000 1.000000
vn 0.000000 0.000000 1.000000
vn 0.000000 0.000000 1.000000
vn 0.000000 0.000000 1.000000
vn 0.000000 0.000000 1.000000
vn 0.000000 0.000000 1.000000
vn 0.000000 0.000000 1.000000
vn 0.000000 0.000000 1.000000
vn 0.000000 0.000000 1.000000
vn -0.000001 0.000000 1.000000
vn -0.000001 0.000000 1.000000
vn -0.000001 0.000000 1.000000
vn 0.000000 0.000000 1.000000
s off
g New_Jersey:New_Jersey
usemtl New_Jersey:initialShadingGroup
f 1/1/1 2/2/2 6/3/3 5/4/4
f 2/2/5 3/5/6 7/6/7 6/3/8
f 3/5/9 4/7/10 8/8/11 7/6/12
f 5/4/13 6/3/14 10/9/15 9/10/16
f 6/3/17 7/6/18 11/11/19 10/9/20
f 7/6/21 8/8/22 12/12/23 11/11/24
f 9/10/25 10/9/26 14/13/27 13/14/28
f 10/9/29 11/11/30 15/15/31 14/13/32
f 11/11/33 12/12/34 16/16/35 15/15/36
f 13/17/37 14/18/38 18/19/39 17/20/40
f 14/21/41 15/22/42 19/23/43 18/24/44
f 15/25/45 16/26/46 20/27/47 19/28/48
f 77/29/49 78/30/50 22/31/51 21/32/52
f 78/33/53 79/34/54 23/35/55 22/36/56
f 79/37/57 80/38/58 24/39/59 23/40/60
f 21/41/61 22/42/62 26/43/63 25/44/64
f 22/45/65 23/46/66 27/47/67 26/48/68
f 23/49/69 24/50/70 28/51/71 27/52/72
f 25/53/73 26/54/74 30/55/75 29/56/76
f 26/57/77 27/58/78 31/59/79 30/60/80
f 27/61/81 28/62/82 32/63/83 31/64/84
f 29/65/85 30/66/86 34/67/87 33/68/88
f 30/69/89 31/70/90 35/71/91 34/72/92
f 31/73/93 32/74/94 36/75/95 35/76/96
f 33/77/97 34/78/98 38/79/99 37/80/100
f 34/81/101 35/82/102 39/83/103 38/84/104
f 35/85/105 36/86/106 40/87/107 39/88/108
f 37/89/109 38/90/110 42/91/111 41/92/112
f 38/93/113 39/94/114 43/95/115 42/96/116
f 39/97/117 40/98/118 44/99/119 43/100/120
f 49/101/121 50/102/122 46/103/123 45/104/124
f 50/105/125 51/106/126 47/107/127 46/108/128
f 51/109/129 52/110/130 48/111/131 47/112/132
f 41/113/133 42/114/134 50/102/135 49/101/136
f 42/115/137 43/116/138 51/106/139 50/105/140
f 43/117/141 44/118/142 52/110/143 51/109/144
f 2/119/145 1/120/146 53/121/147 54/122/148
f 3/123/149 2/124/150 54/125/151 55/126/152
f 4/127/153 3/128/154 55/129/155 56/130/156
f 54/131/157 53/132/158 57/133/159 58/134/160
f 55/135/161 54/136/162 58/137/163 59/138/164
f 56/139/165 55/140/166 59/141/167 60/142/168
f 58/143/169 57/144/170 61/145/171 62/146/172
f 59/147/173 58/148/174 62/149/175 63/150/176
f 60/151/177 59/152/178 63/153/179 64/154/180
f 62/155/181 61/156/182 65/157/183 66/158/184
f 63/159/185 62/160/186 66/161/187 67/162/188
f 64/163/189 63/164/190 67/165/191 68/166/192
f 66/167/193 65/168/194 69/169/195 70/170/196
f 67/171/197 66/172/198 70/173/199 71/174/200
f 68/175/201 67/176/202 71/177/203 72/178/204
f 72/179/205 71/180/206 73/181/207 74/182/208
f 74/183/209 73/184/210 75/185/211 76/186/212
f 17/187/213 18/188/214 78/30/215 77/29/216
f 18/189/217 19/190/218 79/34/219 78/33/220
f 19/191/221 20/192/222 80/38/223 79/37/224
